<svg version="1.2" xmlns="http://www.w3.org/2000/svg" viewBox="0 0 2015 956" width="2015" height="956">
    <style>
        tspan{white-space:pre}.a{fill:#35ccf6}.b{fill:#fff}.c{fill:#fff;stroke:#fff;stroke-width:1.1}.d{font-size: 16px;fill: #ffffff;font-weight: 700;font-family: "Comfortaa-Bold", "Comfortaa"}
    </style>
    <path class="a" d="m468 468.2h-468v-467.9h468z"/>
    <path class="a" d="m983.4 468.2h-467.9v-467.9h467.9z"/>
    <path class="a" d="m1491.2 468.2h-467.9v-467.9h467.9z"/>
    <path class="a" d="m0 487h468v468h-468z"/>
    <path class="a" d="m2014.3 468.2h-467.9v-467.9h467.9z"/><rect class="b" x="171.3" y="99.3" width="125.4" height="254" rx="5.4"></rect><rect class="a" x="175.1" y="103.1" width="117.8" height="246.4" rx="5.4"></rect>
    <path class="b" d="m178.9 340.3v-109c0-1.2 0.4-2.3 1-3.2 4.3-5.9 22-25 54.1 7.7 20.5 20.8 35.9 8.3 45.1-5.8 2.9-4.5 9.9-2.5 9.9 2.9v107.4c0 2.9-2.4 5.4-5.4 5.4h-99.3c-3 0-5.4-2.5-5.4-5.4z"/>
    <path class="b" d="m279.7 212.8c-2.6 4.1-8.9 2.9-9.9-1.8-0.9-4.4-2.7-7.5-3.8-9.2q-0.5-0.7-1-1.4c-4.3-7.2 0.5-17.3 11.1-16.8q0.9 0 1.7 0.4c4.7 2 7 5.6 7.5 9.3 1.3 6.2-1.8 13.5-5.6 19.5z"/>
    <path class="b" d="m262.8 213.7q0.2 0.3 0.4 0.7c2.3 5-3.9 9.6-8.3 6.3q0 0 0 0-0.3-0.2-0.5-0.3c-2.9-2.4-2.7-7.2 1.1-9.2 1.1-0.6 2.4-0.8 3.6-0.4 1.8 0.4 3 1.5 3.7 2.9z"/><rect class="b" x="1717.7" y="224.4" width="125.4" height="128.9" rx="3.8"></rect><rect class="a" x="1721.5" y="228.2" width="117.8" height="121.3" rx="3.8"></rect>
    <path class="b" d="m1725.3 341.8v-71.8c0-2.3 2-4.1 4.3-3.8 8.5 1.2 28.1 3.6 50.7 3.6 22.6 0 42.2-2.9 50.6-4.3 2.4-0.4 4.5 1.4 4.5 3.8v72.5c0 2.1-1.7 3.9-3.8 3.9h-102.5c-2.1 0-3.8-1.8-3.8-3.9z"/><rect class="b" x="686.8" y="172.2" width="125.4" height="181.1" rx="10.9"></rect><rect class="a" x="690.6" y="176.7" width="117.8" height="173.5" rx="10.9"></rect>
    <path class="b" d="m694.4 334.8v-95.2c0-6.3 5.3-11.3 11.5-10.9 8 0.5 21.3 2.3 43.5 7.1 25.7 5.4 41.5 12.3 49.2 16.3 3.7 1.9 5.9 5.6 5.9 9.6v73.1c0 6-4.9 10.9-10.9 10.9h-88.4c-6 0-10.8-4.9-10.8-10.9z"/>
    <path class="c" d="m159.5 427.6q-2.1 0-4-0.7-1.8-0.7-3.2-1.8-1.4-1.2-2.1-2.7-0.3-0.7 0-1.3 0.4-0.6 1.2-0.8 0.6-0.1 1.1 0.2 0.6 0.3 0.9 1 0.4 0.8 1.3 1.5 0.9 0.6 2.2 1.1 1.2 0.4 2.6 0.4 1.6 0 2.9-0.5 1.3-0.5 2.2-1.4 0.8-1 0.8-2.3 0-1.8-1.4-3.1-1.3-1.4-4.4-1.7-4.1-0.4-6.4-2.4-2.3-2-2.3-4.9 0-2.2 1.2-3.7 1.2-1.5 3.3-2.3 2-0.7 4.6-0.7 2 0 3.5 0.5 1.4 0.6 2.6 1.5 1.1 1 1.9 2.4 0.4 0.7 0.4 1.3-0.1 0.6-0.7 1-0.6 0.4-1.3 0.2-0.7-0.3-1.1-0.9-0.5-0.9-1.3-1.6-0.7-0.6-1.7-1-1-0.4-2.4-0.4-2.4 0-4.1 0.9-1.6 0.9-1.6 2.9 0 1 0.5 1.8 0.5 0.9 1.9 1.6 1.3 0.7 3.9 0.9 3.9 0.4 6 2.4 2.2 1.9 2.2 5.2 0 1.8-0.8 3.2-0.7 1.4-2 2.3-1.3 0.9-3 1.4-1.6 0.5-3.4 0.5z"/>
    <path class="c" d="m184.6 427.7q-3.2 0-5.6-1.1-2.4-1.2-3.8-3.2-1.3-2.1-1.3-4.7v-15.3q0-0.7 0.5-1.2 0.5-0.5 1.2-0.5 0.7 0 1.2 0.5 0.5 0.5 0.5 1.2v15.3q0 1.7 0.9 3.1 0.9 1.3 2.6 2.1 1.6 0.8 3.8 0.8 2 0 3.6-0.8 1.6-0.8 2.5-2.1 0.9-1.4 0.9-3.1v-15.3q0-0.7 0.5-1.2 0.4-0.5 1.2-0.5 0.7 0 1.2 0.5 0.4 0.5 0.4 1.2v15.3q0 2.6-1.3 4.7-1.3 2-3.7 3.2-2.3 1.1-5.3 1.1zm3.3-28.4q-1.1 0-1.9-0.3-0.8-0.4-1.4-0.7-0.7-0.4-1.3-0.6-0.5-0.2-0.9-0.2-0.4 0-0.8 0.2-0.3 0.2-0.7 0.7-0.4 0.5-1 0.8-0.5 0.2-1.2-0.1-0.4-0.2-0.5-0.8-0.1-0.6 0.3-1.2 0.7-1.1 1.8-1.6 1.1-0.6 2.4-0.6 1 0 1.8 0.4 0.8 0.3 1.4 0.6 0.7 0.4 1.1 0.6 0.4 0.2 0.8 0.2 0.4 0 0.8-0.2 0.3-0.2 0.5-0.4 0.5-0.5 0.9-0.6 0.4-0.2 1 0.1 0.5 0.3 0.6 1 0 0.6-0.4 1.2-1.2 1.5-3.3 1.5zm5.4 5.4v-3h1.5q0.6 0 1-0.6 0.5-0.6 0.5-1.5v-0.7q0-0.7 0.4-1.1 0.4-0.5 1-0.5 0.8 0 1.1 0.5 0.4 0.6 0.4 1.4v0.4q0 1.4-0.6 2.6-0.5 1.1-1.5 1.8-1 0.7-2.3 0.7z"/>
    <path fill-rule="evenodd" class="c" d="m200.4 427.2q-0.9 0-1.4-0.8-0.5-0.7-0.1-1.6l9.2-21.9q0.5-1.2 1.6-1.2 1.2 0 1.6 1.2l9.2 21.9q0.4 1-0.1 1.7-0.5 0.7-1.4 0.7-0.5 0-1-0.2-0.4-0.3-0.6-0.8l-1.8-4.6h2l-1.3-2.8h-1.9l-4.6-11.6-4.8 11.6h-1.5l-1.3 2.8h1.7l-1.9 4.6q-0.2 0.5-0.7 0.8-0.4 0.2-0.9 0.2zm9.4-20l0.4-1.1h-0.9zm5.8 14.4l-1.1-2.8h-9.4l-1.2 2.8z"/>
    <path class="c" d="m232.7 404.9q-0.6 0-1.1-0.5-0.4-0.4-0.4-1.1 0-0.7 0.4-1.1 0.5-0.5 1.1-0.5h17.5q0.7 0 1.1 0.5 0.5 0.4 0.5 1.1 0 0.7-0.5 1.1-0.4 0.5-1.1 0.5zm8.7 22.3q-0.7 0-1.2-0.5-0.5-0.5-0.5-1.2v-23.8h3.4v23.8q0 0.7-0.5 1.2-0.4 0.5-1.2 0.5z"/>
    <path class="c" d="m266.2 427.7q-3.1 0-5.6-1.1-2.4-1.2-3.7-3.2-1.4-2.1-1.4-4.7v-15.3q0-0.7 0.5-1.2 0.5-0.5 1.2-0.5 0.8 0 1.2 0.5 0.5 0.5 0.5 1.2v15.3q0 1.7 0.9 3.1 1 1.3 2.6 2.1 1.7 0.8 3.8 0.8 2 0 3.6-0.8 1.6-0.8 2.5-2.1 0.9-1.4 0.9-3.1v-15.3q0-0.7 0.5-1.2 0.5-0.5 1.2-0.5 0.7 0 1.2 0.5 0.5 0.5 0.5 1.2v15.3q0 2.6-1.4 4.7-1.3 2-3.6 3.2-2.4 1.1-5.4 1.1zm8.7-23v-3h1.6q0.5 0 1-0.6 0.4-0.6 0.4-1.5v-0.7q0-0.7 0.4-1.1 0.4-0.5 1.1-0.5 0.7 0 1.1 0.5 0.3 0.6 0.3 1.4v0.4q0 1.4-0.5 2.6-0.6 1.1-1.6 1.8-1 0.7-2.2 0.7z"/>
    <path fill-rule="evenodd" class="c" d="m294.9 427.6q-2.9 0-5.3-1-2.4-1-4.1-2.7-1.7-1.8-2.6-4.2-1-2.4-1-5.2 0-2.9 1-5.3 0.9-2.4 2.6-4.1 1.7-1.8 4.1-2.7 2.4-1 5.3-1 2.8 0 5.2 1 0.7 0.3 1.3 0.6h1.5q0.5 0 1-0.6 0.4-0.6 0.4-1.6v-0.6q0-0.7 0.4-1.2 0.4-0.4 1.1-0.4 0.7 0 1 0.5 0.4 0.6 0.4 1.3v0.4q0 1.5-0.5 2.6-0.6 1.2-1.6 1.9-0.2 0.1-0.5 0.3 1.4 1.6 2.3 3.6 0.9 2.4 0.9 5.3 0 2.8-0.9 5.2-1 2.4-2.7 4.2-1.7 1.7-4.1 2.7-2.4 1-5.2 1zm0-3.1q2.1 0 3.9-0.8 1.7-0.7 3-2.1 1.3-1.4 2-3.2 0.7-1.8 0.7-3.9 0-2.1-0.7-4-0.7-1.8-2-3.2-1.3-1.3-3-2.1-1.8-0.7-3.9-0.7-2.2 0-3.9 0.7-1.8 0.8-3.1 2.1-1.3 1.4-2 3.2-0.7 1.9-0.7 4 0 2.1 0.7 3.9 0.7 1.8 2 3.2 1.3 1.4 3.1 2.1 1.7 0.8 3.9 0.8z"/>
    <path class="c" d="m314.8 427.2q-0.7 0-1.2-0.5-0.5-0.5-0.5-1.2v-22.1q0-0.7 0.5-1.2 0.5-0.5 1.2-0.5 0.8 0 1.2 0.5 0.5 0.5 0.5 1.2v22.1q0 0.7-0.5 1.2-0.4 0.5-1.2 0.5z"/>
    <path class="c" d="m1698.8 427.6q-2.1 0-4-0.7-1.9-0.7-3.3-1.8-1.4-1.2-2-2.7-0.4-0.7 0-1.3 0.3-0.6 1.1-0.8 0.6-0.1 1.2 0.2 0.6 0.3 0.9 1 0.4 0.8 1.3 1.5 0.9 0.6 2.1 1.1 1.3 0.4 2.7 0.4 1.6 0 2.9-0.5 1.3-0.5 2.1-1.4 0.8-1 0.8-2.3 0-1.8-1.3-3.1-1.4-1.4-4.5-1.7-4-0.4-6.3-2.4-2.3-2-2.3-4.9 0-2.2 1.2-3.7 1.2-1.5 3.2-2.3 2.1-0.7 4.7-0.7 1.9 0 3.4 0.5 1.5 0.6 2.6 1.5 1.1 1 1.9 2.4 0.5 0.7 0.4 1.3-0.1 0.6-0.6 1-0.6 0.4-1.3 0.2-0.8-0.3-1.1-0.9-0.5-0.9-1.3-1.6-0.7-0.6-1.8-1-1-0.4-2.3-0.4-2.5 0-4.1 0.9-1.6 0.9-1.6 2.9 0 1 0.5 1.8 0.5 0.9 1.8 1.6 1.4 0.7 3.9 0.9 3.9 0.4 6.1 2.4 2.2 1.9 2.2 5.2 0 1.8-0.8 3.2-0.8 1.4-2.1 2.3-1.2 0.9-2.9 1.4-1.6 0.5-3.4 0.5z"/>
    <path class="c" d="m1723.8 427.7q-3.1 0-5.5-1.1-2.4-1.2-3.8-3.2-1.3-2.1-1.3-4.7v-15.3q0-0.7 0.4-1.2 0.5-0.5 1.3-0.5 0.7 0 1.2 0.5 0.4 0.5 0.4 1.2v15.3q0 1.7 1 3.1 0.9 1.3 2.6 2.1 1.6 0.8 3.7 0.8 2.1 0 3.7-0.8 1.5-0.8 2.4-2.1 0.9-1.4 0.9-3.1v-15.3q0-0.7 0.5-1.2 0.5-0.5 1.2-0.5 0.8 0 1.2 0.5 0.5 0.5 0.5 1.2v15.3q0 2.6-1.3 4.7-1.3 2-3.7 3.2-2.3 1.1-5.4 1.1zm3.4-28.4q-1.1 0-1.9-0.3-0.9-0.4-1.4-0.7-0.8-0.4-1.3-0.6-0.5-0.2-0.9-0.2-0.5 0-0.8 0.2-0.4 0.2-0.8 0.7-0.4 0.5-0.9 0.8-0.6 0.2-1.2-0.1-0.4-0.2-0.5-0.8-0.1-0.6 0.2-1.2 0.8-1.1 1.9-1.6 1.1-0.6 2.3-0.6 1.1 0 1.9 0.4 0.8 0.3 1.3 0.6 0.8 0.4 1.2 0.6 0.4 0.2 0.8 0.2 0.4 0 0.7-0.2 0.4-0.2 0.6-0.4 0.4-0.5 0.9-0.6 0.4-0.2 1 0.1 0.5 0.3 0.6 1 0 0.6-0.4 1.2-1.3 1.5-3.3 1.5zm5.3 5.4v-3h1.6q0.6 0 1-0.6 0.4-0.6 0.4-1.5v-0.7q0-0.7 0.4-1.1 0.4-0.5 1.1-0.5 0.7 0 1.1 0.5 0.4 0.6 0.4 1.4v0.4q0 1.4-0.6 2.6-0.6 1.1-1.5 1.8-1 0.7-2.3 0.7z"/>
    <path fill-rule="evenodd" class="c" d="m1739.7 427.2q-0.9 0-1.4-0.8-0.5-0.7-0.1-1.6l9.2-21.9q0.5-1.2 1.6-1.2 1.1 0 1.6 1.2l9.2 21.9q0.3 1-0.1 1.7-0.5 0.7-1.5 0.7-0.4 0-0.9-0.2-0.4-0.3-0.6-0.8l-1.9-4.6h2l-1.3-2.8h-1.8l-4.7-11.6-4.7 11.6h-1.6l-1.3 2.8h1.7l-1.8 4.6q-0.3 0.5-0.7 0.8-0.4 0.2-0.9 0.2zm9.3-20l0.5-1.1h-0.9zm5.8 14.4l-1.1-2.8h-9.5l-1.1 2.8z"/>
    <path class="c" d="m1784.6 427.6q-2.6 0-4.9-1-2.3-1-4-2.8-1.7-1.8-2.7-4.2-1-2.4-1-5.1 0-2.8 1-5.1 1-2.4 2.7-4.2 1.7-1.8 4-2.8 2.3-1 4.9-1 2.5 0 4.4 0.7 1.8 0.6 3.6 2.1 0.3 0.2 0.4 0.4 0.2 0.2 0.2 0.5 0 0.2 0 0.5 0 0.6-0.4 1-0.4 0.4-1.1 0.4-0.6 0.1-1.2-0.4-1.2-1-2.5-1.6-1.2-0.5-3.4-0.5-1.9 0-3.6 0.8-1.7 0.8-3 2.1-1.3 1.4-2 3.2-0.7 1.8-0.7 3.9 0 2.1 0.7 3.9 0.7 1.8 2 3.1 1.3 1.4 3 2.2 1.7 0.8 3.6 0.8 1.7 0 3.2-0.6 1.5-0.6 2.8-1.6 0.6-0.4 1.2-0.4 0.6 0.1 1 0.5 0.4 0.4 0.4 1.1 0 0.3-0.2 0.6-0.1 0.4-0.4 0.6-1.7 1.4-3.7 2.1-2 0.8-4.3 0.8z"/>
    <path class="c" d="m1800.3 427.2q-0.8 0-1.2-0.5-0.5-0.5-0.5-1.2v-22.1q0-0.7 0.5-1.2 0.4-0.5 1.2-0.5 0.7 0 1.2 0.5 0.5 0.5 0.5 1.2v9.4h15.1v-9.4q0-0.7 0.5-1.2 0.5-0.5 1.2-0.5 0.7 0 1.2 0.5 0.5 0.5 0.5 1.2v22.1q0 0.7-0.5 1.2-0.5 0.5-1.2 0.5-0.7 0-1.2-0.5-0.5-0.5-0.5-1.2v-9.7h-15.1v9.7q0 0.7-0.5 1.2-0.5 0.5-1.2 0.5z"/>
    <path class="c" d="m1837.7 427.7q-3.2 0-5.6-1.1-2.4-1.2-3.8-3.2-1.3-2.1-1.3-4.7v-15.3q0-0.7 0.5-1.2 0.5-0.5 1.2-0.5 0.7 0 1.2 0.5 0.5 0.5 0.5 1.2v15.3q0 1.7 0.9 3.1 0.9 1.3 2.6 2.1 1.6 0.8 3.8 0.8 2 0 3.6-0.8 1.6-0.8 2.5-2.1 0.9-1.4 0.9-3.1v-15.3q0-0.7 0.5-1.2 0.4-0.5 1.2-0.5 0.7 0 1.2 0.5 0.4 0.5 0.4 1.2v15.3q0 2.6-1.3 4.7-1.3 2-3.7 3.2-2.3 1.1-5.3 1.1z"/>
    <path fill-rule="evenodd" class="c" d="m1852.6 427.2q-1 0-1.4-0.8-0.5-0.7-0.1-1.6l9.1-21.9q0.5-1.2 1.6-1.2 1.2 0 1.6 1.2l9.2 21.9q0.4 1-0.1 1.7-0.5 0.7-1.4 0.7-0.5 0-0.9-0.2-0.5-0.3-0.7-0.8l-1.8-4.6h2l-1.3-2.8h-1.8l-4.7-11.6-4.8 11.6h-1.5l-1.3 2.8h1.7l-1.9 4.6q-0.2 0.5-0.6 0.8-0.5 0.2-0.9 0.2zm9.3-20l0.4-1.1h-0.9zm5.8 14.4l-1.1-2.8h-9.4l-1.2 2.8z"/><rect class="b" x="1202.2" y="99.3" width="125.4" height="254" rx="10.9"></rect><rect class="a" x="1206" y="103.1" width="117.8" height="246.4" rx="10.9"></rect><rect class="b" x="1209.8" y="107" width="110.1" height="71.1" rx="10.9"></rect>
    <path class="b" d="m1225.6 274.2c37.7 19 62.2 1.2 78.6-7.1 7.2-3.6 15.8 1.6 15.8 9.8v57.9c0 6-4.9 10.9-10.9 10.9h-88.4c-6 0-10.9-4.9-10.9-10.9v-50.8c0-8.1 8.5-13.4 15.8-9.8z"/>
    <path class="c" d="m1131.2 427.6q-2.1 0-4-0.7-1.9-0.7-3.3-1.8-1.4-1.2-2.1-2.7-0.3-0.7 0.1-1.3 0.3-0.6 1.1-0.8 0.6-0.1 1.2 0.2 0.5 0.3 0.8 1 0.4 0.8 1.3 1.5 0.9 0.6 2.2 1.1 1.3 0.4 2.7 0.4 1.5 0 2.9-0.5 1.3-0.5 2.1-1.4 0.8-1 0.8-2.3 0-1.8-1.3-3.1-1.4-1.4-4.5-1.7-4-0.4-6.4-2.4-2.3-2-2.3-4.9 0-2.2 1.2-3.7 1.2-1.5 3.3-2.3 2.1-0.7 4.6-0.7 2 0 3.5 0.5 1.5 0.6 2.6 1.5 1.1 1 1.9 2.4 0.5 0.7 0.4 1.3-0.1 0.6-0.6 1-0.7 0.4-1.4 0.2-0.7-0.3-1-0.9-0.6-0.9-1.3-1.6-0.8-0.6-1.8-1-1-0.4-2.4-0.4-2.4 0-4 0.9-1.6 0.9-1.6 2.9 0 1 0.5 1.8 0.5 0.9 1.8 1.6 1.4 0.7 3.9 0.9 3.9 0.4 6.1 2.4 2.1 1.9 2.1 5.2 0 1.8-0.7 3.2-0.8 1.4-2.1 2.3-1.3 0.9-2.9 1.4-1.7 0.5-3.4 0.5z"/>
    <path class="c" d="m1156.2 427.7q-3.1 0-5.5-1.1-2.5-1.2-3.8-3.2-1.4-2.1-1.4-4.7v-15.3q0-0.7 0.5-1.2 0.5-0.5 1.2-0.5 0.8 0 1.2 0.5 0.5 0.5 0.5 1.2v15.3q0 1.7 1 3.1 0.9 1.3 2.5 2.1 1.7 0.8 3.8 0.8 2.1 0 3.6-0.8 1.6-0.8 2.5-2.1 0.9-1.4 0.9-3.1v-15.3q0-0.7 0.5-1.2 0.5-0.5 1.2-0.5 0.8 0 1.2 0.5 0.5 0.5 0.5 1.2v15.3q0 2.6-1.3 4.7-1.4 2-3.7 3.2-2.4 1.1-5.4 1.1zm3.4-28.4q-1.1 0-2-0.3-0.8-0.4-1.4-0.7-0.7-0.4-1.2-0.6-0.5-0.2-0.9-0.2-0.5 0-0.8 0.2-0.4 0.2-0.8 0.7-0.4 0.5-0.9 0.8-0.6 0.2-1.2-0.1-0.5-0.2-0.6-0.8-0.1-0.6 0.3-1.2 0.7-1.1 1.8-1.6 1.1-0.6 2.4-0.6 1.1 0 1.9 0.4 0.7 0.3 1.3 0.6 0.8 0.4 1.1 0.6 0.4 0.2 0.9 0.2 0.4 0 0.7-0.2 0.3-0.2 0.6-0.4 0.4-0.5 0.8-0.6 0.5-0.2 1.1 0.1 0.5 0.3 0.5 1 0.1 0.6-0.3 1.2-1.3 1.5-3.3 1.5zm5.3 5.4v-3h1.6q0.6 0 1-0.6 0.4-0.6 0.4-1.5v-0.7q0-0.7 0.4-1.1 0.4-0.5 1.1-0.5 0.7 0 1.1 0.5 0.3 0.6 0.3 1.4v0.4q0 1.4-0.5 2.6-0.6 1.1-1.6 1.8-1 0.7-2.2 0.7z"/>
    <path fill-rule="evenodd" class="c" d="m1172.1 427.2q-0.9 0-1.4-0.8-0.5-0.7-0.1-1.6l9.2-21.9q0.4-1.2 1.6-1.2 1.1 0 1.6 1.2l9.2 21.9q0.3 1-0.2 1.7-0.4 0.7-1.4 0.7-0.5 0-0.9-0.2-0.5-0.3-0.6-0.8l-1.9-4.6h2l-1.3-2.8h-1.8l-4.7-11.6-4.7 11.6h-1.6l-1.3 2.8h1.7l-1.8 4.6q-0.3 0.5-0.7 0.8-0.5 0.2-0.9 0.2zm9.3-20l0.5-1.1h-0.9zm5.8 14.4l-1.2-2.8h-9.4l-1.1 2.8z"/>
    <path class="c" d="m1204.4 404.9q-0.7 0-1.1-0.5-0.5-0.4-0.5-1.1 0-0.7 0.5-1.1 0.4-0.5 1.1-0.5h17.4q0.7 0 1.2 0.5 0.4 0.4 0.4 1.1 0 0.7-0.4 1.1-0.5 0.5-1.2 0.5zm8.8 22.3q-0.7 0-1.2-0.5-0.5-0.5-0.5-1.2v-23.8h3.4v23.8q0 0.7-0.5 1.2-0.5 0.5-1.2 0.5z"/>
    <path class="c" d="m1228.9 427.2q-0.8 0-1.3-0.5-0.4-0.5-0.4-1.2v-22.1q0-0.7 0.4-1.2 0.5-0.5 1.3-0.5 0.7 0 1.2 0.5 0.5 0.5 0.5 1.2v22.1q0 0.7-0.5 1.2-0.5 0.5-1.2 0.5z"/>
    <path class="c" d="m1238.8 427.2q-0.7 0-1.2-0.5-0.5-0.5-0.5-1.2v-22.1q0-0.7 0.5-1.2 0.5-0.5 1.2-0.5h14.7q0.8 0 1.2 0.5 0.5 0.4 0.5 1.1 0 0.7-0.5 1.2-0.4 0.4-1.2 0.4h-13v7.9h9.3q0.8 0 1.2 0.4 0.5 0.5 0.5 1.2 0 0.7-0.5 1.1-0.4 0.4-1.2 0.4h-9.3v8.2h13q0.8 0 1.2 0.4 0.5 0.4 0.5 1.1 0 0.7-0.5 1.2-0.4 0.4-1.2 0.4zm4.2-27.7q-0.8 0-1.2-0.3-0.5-0.4-0.5-1 0-0.9 0.8-1.4l3.6-2.4q0.5-0.3 0.9-0.3 0.2 0 0.4 0.1 0.2 0 0.5 0.2l3.6 2.4q0.8 0.5 0.8 1.4 0 0.6-0.5 1-0.4 0.3-1.2 0.3-0.3 0-0.5-0.1-0.3 0-0.5-0.2l-2.6-1.9-2.6 1.9q-0.5 0.3-1 0.3zm2.9 35q-0.9 0-1.5-0.6-0.6-0.6-0.6-1.5 0-0.9 0.6-1.5 0.6-0.7 1.5-0.7 0.9 0 1.5 0.7 0.7 0.6 0.7 1.5 0 0.9-0.7 1.5-0.6 0.6-1.5 0.6z"/>
    <path class="c" d="m1258.7 404.9q-0.7 0-1.1-0.5-0.5-0.4-0.5-1.1 0-0.7 0.5-1.1 0.4-0.5 1.1-0.5h17.5q0.6 0 1.1 0.5 0.4 0.4 0.4 1.1 0 0.7-0.4 1.1-0.5 0.5-1.1 0.5zm8.7 22.3q-0.7 0-1.2-0.5-0.5-0.5-0.5-1.2v-23.8h3.4v23.8q0 0.7-0.5 1.2-0.5 0.5-1.2 0.5z"/>
    <path class="c" d="m1289.8 404.9q-0.7 0-1.1-0.5-0.4-0.4-0.4-1.1 0-0.7 0.4-1.1 0.4-0.5 1.1-0.5h17.5q0.7 0 1.1 0.5 0.5 0.4 0.5 1.1 0 0.7-0.5 1.1-0.4 0.5-1.1 0.5zm8.7 22.3q-0.7 0-1.2-0.5-0.5-0.5-0.5-1.2v-23.8h3.4v23.8q0 0.7-0.5 1.2-0.5 0.5-1.2 0.5z"/>
    <path fill-rule="evenodd" class="c" d="m1314.3 427.2q-0.7 0-1.2-0.5-0.5-0.5-0.5-1.2v-22.1q0-0.7 0.5-1.2 0.5-0.5 1.2-0.5h5.9q2.4 0 4.3 1.1 1.9 1 3 2.8 1 1.8 1 4.2 0 2.2-1 3.9-1.1 1.8-3 2.7-0.2 0.1-0.3 0.2l4.9 8q0.6 1 0.2 1.8-0.4 0.8-1.5 0.8-0.4 0-0.8-0.2-0.4-0.2-0.6-0.6l-5.6-9q-0.3 0-0.6 0h-4.2v8.1q0 0.7-0.5 1.2-0.5 0.5-1.2 0.5zm1.7-12.9h4.2q1.5 0 2.6-0.6 1.2-0.6 1.8-1.6 0.7-1 0.7-2.3 0-1.5-0.7-2.6-0.6-1.1-1.8-1.7-1.1-0.6-2.6-0.6h-4.2z"/>
    <path class="c" d="m1343.9 427.7q-3.1 0-5.6-1.1-2.4-1.2-3.7-3.2-1.4-2.1-1.4-4.7v-15.3q0-0.7 0.5-1.2 0.5-0.5 1.2-0.5 0.8 0 1.2 0.5 0.5 0.5 0.5 1.2v15.3q0 1.7 0.9 3.1 1 1.3 2.6 2.1 1.7 0.8 3.8 0.8 2 0 3.6-0.8 1.6-0.8 2.5-2.1 0.9-1.4 0.9-3.1v-15.3q0-0.7 0.5-1.2 0.5-0.5 1.2-0.5 0.8 0 1.2 0.5 0.5 0.5 0.5 1.2v15.3q0 2.6-1.4 4.7-1.3 2-3.6 3.2-2.4 1.1-5.4 1.1zm-0.2-28.8q-0.8 0-1.2-0.4l-3.2-3.2q-0.4-0.4-0.4-1.1 0-0.7 0.5-1.2 0.4-0.5 1.1-0.5 0.7 0 1.2 0.5l3.2 3.2q0.4 0.4 0.4 1.1 0 0.7-0.4 1.2-0.5 0.4-1.2 0.4z"/>
    <path class="c" d="m1362.5 427.2q-0.8 0-1.2-0.5-0.5-0.5-0.5-1.2v-22.1q0-0.7 0.5-1.2 0.4-0.5 1.2-0.5 0.7 0 1.3 0.7l14.2 18.9v-17.9q0-0.7 0.5-1.2 0.5-0.5 1.2-0.5 0.7 0 1.2 0.5 0.4 0.5 0.4 1.2v22.1q0 0.7-0.4 1.2-0.5 0.5-1.2 0.5-0.3 0-0.7-0.1-0.4-0.2-0.6-0.5l-14.2-18.9v17.8q0 0.7-0.5 1.2-0.5 0.5-1.2 0.5z"/>
    <path fill-rule="evenodd" class="c" d="m1399.3 427.6q-2.7 0-5-1-2.3-1-4-2.8-1.7-1.8-2.6-4.2-1-2.4-1-5.1 0-2.8 1-5.1 0.9-2.4 2.6-4.2 1.7-1.8 4-2.8 2.3-1 5-1 2.5 0 4.3 0.7 1.8 0.6 3.6 2.1 0.3 0.2 0.5 0.4 0.1 0.2 0.2 0.5 0 0.2 0 0.5 0 0.6-0.4 1-0.5 0.4-1.1 0.5-0.7 0-1.2-0.5-1.2-1-2.5-1.6-1.3-0.5-3.4-0.5-1.9 0-3.6 0.8-1.7 0.8-3 2.1-1.3 1.4-2 3.2-0.7 1.8-0.7 3.9 0 2.1 0.7 3.9 0.7 1.8 2 3.1 1.3 1.4 3 2.2 1.7 0.8 3.6 0.8 1.7 0 3.1-0.6 1.1-0.4 2.1-1.1v0.1l3.3 0.6q0 0.3-0.1 0.6-0.1 0.4-0.4 0.6-1.7 1.5-3.8 2.2-2 0.7-4.2 0.7zm6-5.3q0.6-0.4 1.1-0.4 0.6 0.1 1 0.5 0.4 0.4 0.4 1.1v-7.8q0-0.7-0.5-1.2-0.4-0.5-1.2-0.5h-6.1q-0.7 0-1.2 0.4-0.5 0.5-0.5 1.1 0 0.7 0.5 1.1 0.5 0.4 1.2 0.4h4.5v5.8q0.4-0.2 0.8-0.5z"/>
    <path class="c" d="m682.9 427.6q-2 0-3.9-0.7-1.9-0.7-3.3-1.8-1.4-1.2-2.1-2.7-0.3-0.7 0-1.3 0.4-0.6 1.2-0.8 0.6-0.1 1.1 0.2 0.6 0.3 0.9 1 0.4 0.8 1.3 1.5 0.9 0.6 2.2 1.1 1.2 0.4 2.6 0.4 1.6 0 2.9-0.5 1.4-0.5 2.2-1.4 0.8-1 0.8-2.3 0-1.8-1.4-3.1-1.3-1.4-4.4-1.7-4.1-0.4-6.4-2.4-2.3-2-2.3-4.9 0-2.2 1.2-3.7 1.2-1.5 3.3-2.3 2.1-0.7 4.6-0.7 2 0 3.5 0.5 1.5 0.6 2.6 1.5 1.1 1 1.9 2.4 0.4 0.7 0.4 1.3-0.1 0.6-0.7 1-0.6 0.4-1.3 0.2-0.7-0.3-1.1-0.9-0.5-0.9-1.3-1.6-0.7-0.6-1.7-1-1-0.4-2.4-0.4-2.4 0-4 0.9-1.7 0.9-1.7 2.9 0 1 0.5 1.8 0.5 0.9 1.9 1.6 1.3 0.7 3.9 0.9 3.9 0.4 6 2.4 2.2 1.9 2.2 5.2 0 1.8-0.8 3.2-0.7 1.4-2 2.3-1.3 0.9-2.9 1.4-1.7 0.5-3.5 0.5z"/>
    <path class="c" d="m708 427.7q-3.2 0-5.6-1.1-2.4-1.2-3.7-3.2-1.4-2.1-1.4-4.7v-15.3q0-0.7 0.5-1.2 0.5-0.5 1.2-0.5 0.7 0 1.2 0.5 0.5 0.5 0.5 1.2v15.3q0 1.7 0.9 3.1 1 1.3 2.6 2.1 1.6 0.8 3.8 0.8 2 0 3.6-0.8 1.6-0.8 2.5-2.1 0.9-1.4 0.9-3.1v-15.3q0-0.7 0.5-1.2 0.5-0.5 1.2-0.5 0.7 0 1.2 0.5 0.4 0.5 0.4 1.2v15.3q0 2.6-1.3 4.7-1.3 2-3.6 3.2-2.4 1.1-5.4 1.1zm3.3-28.4q-1.1 0-1.9-0.3-0.8-0.4-1.4-0.7-0.7-0.4-1.2-0.6-0.6-0.2-1-0.2-0.4 0-0.8 0.2-0.3 0.2-0.7 0.7-0.4 0.5-1 0.8-0.5 0.2-1.1-0.1-0.5-0.2-0.6-0.8-0.1-0.6 0.3-1.2 0.7-1.1 1.8-1.6 1.1-0.6 2.4-0.6 1 0 1.8 0.4 0.8 0.3 1.4 0.6 0.7 0.4 1.1 0.6 0.4 0.2 0.8 0.2 0.5 0 0.8-0.2 0.3-0.2 0.5-0.4 0.5-0.5 0.9-0.6 0.4-0.2 1.1 0.1 0.4 0.3 0.5 1 0 0.6-0.4 1.2-1.2 1.5-3.3 1.5zm5.4 5.4v-3h1.5q0.6 0 1.1-0.6 0.4-0.6 0.4-1.5v-0.7q0-0.7 0.4-1.1 0.4-0.5 1-0.5 0.8 0 1.1 0.5 0.4 0.6 0.4 1.4v0.4q0 1.4-0.6 2.6-0.5 1.1-1.5 1.8-1 0.7-2.3 0.7z"/>
    <path fill-rule="evenodd" class="c" d="m723.9 427.2q-1 0-1.4-0.8-0.5-0.7-0.1-1.6l9.1-21.9q0.5-1.2 1.6-1.2 1.2 0 1.6 1.2l9.2 21.9q0.4 1-0.1 1.7-0.5 0.7-1.4 0.7-0.5 0-0.9-0.2-0.5-0.3-0.7-0.8l-1.8-4.6h2l-1.3-2.8h-1.8l-4.7-11.6-4.8 11.6h-1.5l-1.3 2.8h1.7l-1.9 4.6q-0.2 0.5-0.6 0.8-0.5 0.2-0.9 0.2zm9.3-20l0.4-1.1h-0.9zm5.8 14.4l-1.1-2.8h-9.4l-1.2 2.8z"/>
    <path fill-rule="evenodd" class="c" d="m755.7 415.9q-0.7 0-1.2-0.4-0.4-0.3-0.4-1 0-0.7 0.4-1.1 0.5-0.4 1.2-0.4h1.7v-9.6q0-0.7 0.5-1.2 0.4-0.5 1.2-0.5h5.9q2.8 0 5.1 1 2.3 0.9 4 2.6 1.7 1.7 2.6 4 0.9 2.4 0.9 5.2 0 2.8-0.9 5.1-0.9 2.3-2.6 4.1-1.7 1.7-4 2.6-2.3 0.9-5.1 0.9h-5.9q-0.8 0-1.2-0.5-0.5-0.5-0.5-1.2v-9.6zm5 8.3h4.2q2.7 0 4.8-1.2 2.1-1.3 3.4-3.5 1.2-2.2 1.2-5 0-2.9-1.2-5.1-1.3-2.2-3.4-3.4-2.1-1.3-4.8-1.3h-4.2z"/>
    <path fill-rule="evenodd" class="c" d="m781.9 427.2q-0.9 0-1.4-0.8-0.5-0.7-0.1-1.6l9.2-21.9q0.5-1.2 1.6-1.2 1.1 0 1.6 1.2l9.2 21.9q0.3 1-0.2 1.7-0.4 0.7-1.4 0.7-0.5 0-0.9-0.2-0.4-0.3-0.6-0.8l-1.9-4.6h2l-1.3-2.8h-1.8l-4.7-11.6-4.7 11.6h-1.6l-1.3 2.8h1.7l-1.8 4.6q-0.3 0.5-0.7 0.8-0.4 0.2-0.9 0.2zm9.3-20l0.5-1.1h-0.9zm-5.9 14.4l1.1-2.8h9.4l1.2 2.8zm5.8-21.8q-1.5 0-2.7-0.5-1.2-0.5-1.9-1.5-0.8-0.9-0.8-2 0-0.8 0.5-1.2 0.4-0.5 1.1-0.5 0.6 0 1.1 0.3 0.5 0.4 0.5 1 0 0.8 0.7 1.3 0.7 0.5 1.5 0.5 1 0 1.5-0.5 0.6-0.5 0.6-1.3 0-0.6 0.5-1 0.5-0.3 1.1-0.3 0.7 0 1.1 0.5 0.5 0.4 0.5 1.2 0 1.1-0.8 2-0.7 1-1.9 1.5-1.2 0.5-2.6 0.5zm0 34.7q-0.9 0-1.6-0.6-0.6-0.7-0.6-1.5 0-0.9 0.6-1.6 0.7-0.6 1.6-0.6 0.8 0 1.5 0.6 0.6 0.7 0.6 1.6 0 0.8-0.6 1.5-0.7 0.6-1.5 0.6z"/>
    <path class="c" d="m816.6 427.6q-2.6 0-4.9-1-2.3-1-4-2.8-1.8-1.8-2.7-4.2-1-2.4-1-5.1 0-2.8 1-5.1 0.9-2.4 2.7-4.2 1.7-1.8 3.9-2.8 2.3-1 5-1 2.5 0 4.3 0.7 1.8 0.6 3.7 2.1 0.2 0.2 0.4 0.4 0.1 0.2 0.2 0.5 0 0.2 0 0.5 0 0.6-0.4 1-0.5 0.4-1.1 0.4-0.6 0.1-1.2-0.4-1.2-1-2.5-1.6-1.3-0.5-3.4-0.5-1.9 0-3.6 0.8-1.7 0.8-3 2.1-1.3 1.4-2 3.2-0.7 1.8-0.7 3.9 0 2.1 0.7 3.9 0.7 1.8 2 3.1 1.3 1.4 3 2.2 1.7 0.8 3.6 0.8 1.7 0 3.2-0.6 1.4-0.6 2.8-1.6 0.6-0.4 1.2-0.4 0.5 0.1 0.9 0.5 0.4 0.4 0.4 1.1 0 0.3-0.1 0.6-0.1 0.4-0.4 0.6-1.8 1.4-3.8 2.1-2 0.8-4.2 0.8z"/>
    <path class="b" d="m808.6 88l4.3 6.8c1 1.5 0.5 3.4-1.2 4.3l-64.8 33.8c-1.1 0.5-1.7 1.6-1.8 2.7 0 8.1-5.8 16.7-15.7 21.9-13.7 7.1-29.9 5-36.3-4.7-6.3-9.8-0.4-23.5 13.3-30.6 9.9-5.2 21.2-5.5 29-1.5 1.1 0.5 2.5 0.6 3.6 0l64.7-33.8c1.7-0.9 3.9-0.4 4.9 1.1z"/>
    <path class="a" d="m727.2 154.1c-11.8 6.2-26 4.8-31-2.9-5.1-7.8 0.6-19.5 12.3-25.6 9.3-4.9 20.2-5.2 27.1-0.9l0.1 0.1c1.1 0.7 2.6 0.7 3.8 0.1l63.4-33c1.7-0.9 3.8-0.4 4.8 1.1 1 1.5 0.4 3.4-1.3 4.3l-63.4 33.1c-1.1 0.6-1.8 1.8-1.7 3v0.1c0.8 7.5-4.9 15.8-14.1 20.6z"/>
    <path class="b" d="m727 158.6q-21.8 51.7 31.3 79.2l-31.8 20.1q-13.7-11.9-27-25.8c21.8 1.6 15.8-26.4 13.6-43.9q-2.2-17.5-16.8-31.8 0 0 0-0.1c-1.2-1-2.3-2.2-3.2-3.5q-1.2-1.9-1.8-3.8c7.6 0.8 4.3 4.4 24 4.4 19.8 0 17-3.6 24.7-4.5-2.6 3.3-6.2 6.3-10.6 8.6q-1.2 0.6-2.4 1.1 0 0 0 0z"/>
    <path class="b" d="m1247.1 244.5q0 13.5-12.6 13.5-12.2 0-12.2-13.2v-17.3h6.8v17.4q0 7.3 5.7 7.3 5.6 0 5.6-7v-17.7h6.7z"/>
    <path class="b" d="m1279.6 257.5h-6.8v-12.2h-12.4v12.2h-6.8v-30h6.8v12h12.4v-12h6.8z"/>
    <path class="b" d="m1307.4 233h-8.5v24.5h-6.8v-24.5h-8.5v-5.5h23.8z"/><rect class="b" x="1692.1" y="220.5" width="178.6" height="7.7" rx="3.8"></rect>
    <path class="b" d="m1312.8 200.3c0 5.8-4.7 10.5-10.5 10.5-5.8 0-10.4-4.7-10.4-10.5 0-2.8 1.1-5.4 3-7.3q0 0 0 0 0.1-0.1 0.1-0.1c1-0.9 5.7-5.7 6.9-11.8q0.4-2.1-3.3-4.8h3.7 3.7q-3.7 2.7-3.2 4.8c1.1 6.1 5.9 10.9 6.8 11.8q0.1 0 0.2 0.1 0 0 0 0c1.8 1.9 3 4.5 3 7.3z"/>
    <path fill-rule="evenodd" class="b" d="m290.9 846.1h-43.2c-1.6 0-3-1.3-3-3v-6.6c-31.4-8.9-52.4-33.4-52.4-61.7 0-1.6 1.3-3 3-3h148.1c1.6 0 3 1.4 3 3 0 28.3-21 52.8-52.5 61.7v6.6c0 1.7-1.4 3-3 3zm-40.2-6h37.2v-5.6c-0.2-1.5 0.8-2.8 2.2-3.2 28.9-7.4 48.7-28.6 50.2-53.5h-141.9c1.4 24.9 21.2 46.1 50.1 53.5 1.5 0.4 2.4 1.8 2.2 3.3q0 0 0 0z"/>
    <path fill-rule="evenodd" class="b" d="m128.7 846.1c-2.1 0-4.1-0.9-5.5-2.6-1.8-2.2-2.1-5.3-0.7-7.8l5.7-10.4q0.1-0.3 0.1-0.5v-207.5q0-0.3-0.1-0.5l-5.7-10.4c-1.4-2.6-1.1-5.7 0.7-7.9 1.8-2.2 4.8-3.1 7.6-2.3l13.4 4.2q0.1 0.1 0.3 0.1h141.5q0.1 0 0.3-0.1l13.4-4.2c2.8-0.8 5.7 0.1 7.5 2.3 1.9 2.2 2.2 5.3 0.8 7.9l-5.7 10.4q-0.1 0.2-0.1 0.5v157.5c0 1.7-1.4 3-3 3h-100.8c1.4 24.9 21.2 46.1 50.1 53.5 1.5 0.4 2.4 1.8 2.2 3.3q0 0 0 0v4c0 1.6-1.3 3-3 3h-103.2q-0.2 0-0.3 0l-13.4 4.2q-1.1 0.3-2.1 0.3zm-0.1-244.2c-0.3 0-0.6 0.2-0.7 0.4-0.2 0.2-0.5 0.6-0.2 1.2l5.7 10.4c0.6 1 0.9 2.2 0.9 3.4v207.5c0 1.1-0.3 2.3-0.9 3.3l-5.7 10.5c-0.3 0.5 0 0.9 0.2 1.1 0.1 0.2 0.5 0.6 1.1 0.4l13.4-4.2q1-0.3 2.1-0.3h97.2c-29.8-9.6-49.4-33.4-49.4-60.8 0-1.6 1.3-3 3-3h100.9v-154.5c0-1.2 0.3-2.4 0.8-3.4l5.7-10.4c0.3-0.6 0.1-1-0.1-1.2-0.2-0.2-0.5-0.5-1.1-0.3l-13.4 4.1q-1.1 0.4-2.1 0.4h-141.5q-1.1 0-2.1-0.4l-13.4-4.1q-0.2-0.1-0.4-0.1z"/>
    <path class="b" d="m213.7 774.8c0-21.7 24.9-39.2 55.6-39.2 30.8 0 55.7 17.5 55.7 39.2z"/>
    <path class="b" d="m169.5 657.5c-12.2-8.7-12.2-22.8 0-34.3 13.4 12.4 12.6 28.2 0 34.3z"/>
    <path class="b" d="m171.5 671.9c-3-11 2.8-18.6 20.1-19.8-0.1 14.9-7.2 21.9-20.1 19.8z"/>
    <path class="b" d="m148 651.9c15.7 1.2 23 8.3 20.6 20-12.7 2.6-19.9-4.3-20.6-20z"/>
    <path class="b" d="m171.5 692.3c-3-11 2.8-18.6 20.1-19.9-0.1 15-7.2 22-20.1 19.9z"/>
    <path class="b" d="m148 672.3c15.7 1.1 23 8.2 20.6 20-12.7 2.6-19.9-4.3-20.6-20z"/>
    <path class="b" d="m171.5 712.7c-3-11 2.8-18.6 20.1-19.9-0.1 15-7.2 22-20.1 19.9z"/>
    <path class="b" d="m148 692.7c15.7 1.1 23 8.2 20.6 20-12.7 2.5-19.9-4.3-20.6-20z"/>
    <path class="b" d="m171.5 733.1c-3-11 2.8-18.6 20.1-19.9-0.1 15-7.2 21.9-20.1 19.9z"/>
    <path class="b" d="m148 713.1c15.7 1.1 23 8.2 20.6 19.9-12.7 2.6-19.9-4.2-20.6-19.9z"/>
    <path class="b" d="m171.5 753.4c-3-10.9 2.8-18.6 20.1-19.8-0.1 14.9-7.2 21.9-20.1 19.8z"/>
    <path class="b" d="m148 733.4c15.7 1.2 23 8.3 20.6 20-12.7 2.6-19.9-4.3-20.6-20z"/>
    <path class="b" d="m171.5 773.8c-3-11 2.8-18.6 20.1-19.9-0.1 15-7.2 22-20.1 19.9z"/>
    <path class="b" d="m148 753.8c15.7 1.2 23 8.3 20.6 20-12.7 2.6-19.9-4.3-20.6-20z"/><rect class="b" x="166.6" y="779.3" width="6.4" height="58.5" rx="3.2"></rect>
    <path class="a" d="m515.5 487h467.9v468h-467.9z"/>
    <path fill-rule="evenodd" class="b" d="m770.9 748.7c-8.1 0-15.9-4.1-20.5-11.3l-3-4.5c-6.5-10.2-4.5-23.7 4.5-31.6l13.8-22.5v-10.8c0-14.7 11.9-26.6 26.6-26.6h50.9c14.6 0 26.5 11.9 26.5 26.6v38.5c0 14.7-11.9 26.6-26.5 26.6h-20.1l-44.7 14.4c-2.4 0.8-5 1.2-7.5 1.2zm21.4-101.3c-11.3 0-20.6 9.2-20.6 20.6v11.7q0 0.8-0.4 1.5l-14.5 23.7q-0.3 0.4-0.6 0.7c-7.1 5.9-8.7 16.3-3.7 24l2.9 4.6c4.5 7 13.2 10.2 21.2 7.6l45.2-14.6q0.4-0.1 0.9-0.1h20.5c11.3 0 20.5-9.2 20.5-20.6v-38.5c0-11.4-9.2-20.6-20.5-20.6z"/>
    <path class="b" d="m842.6 647.4h-40c-17.2 0-31.2-17.1-31.2-38.1v-5.8c0-1.6 1.4-3 3-3 1.7 0 3 1.4 3 3v5.8c0 17.7 11.3 32.1 25.2 32.1h40c13.9 0 25.2-14.4 25.2-32.1v-5.8c0-1.6 1.3-3 3-3 1.6 0 3 1.4 3 3v5.8c0 21-14 38.1-31.2 38.1z"/>
    <path fill-rule="evenodd" class="b" d="m839.7 841.5h-184.2c-16.8 0-30.4-13.6-30.4-30.4v-43.1c0-1.7 1.4-3 3-3h239c1.6 0 3 1.3 3 3v43.1c0 16.8-13.6 30.4-30.4 30.4zm-208.6-70.5v40.1c0 13.5 10.9 24.4 24.4 24.4h184.2c13.5 0 24.4-10.9 24.4-24.4v-40.1z"/>
    <path class="b" d="m655.5 828.5c-9.6 0-17.4-7.8-17.4-17.4v-33.1h219v33.1c0 9.6-7.8 17.4-17.4 17.4z"/>
    <path class="b" d="m637.3 768c0-6.5 19.7-11.8 43.9-11.8 24.3 0 43.9 5.3 43.9 11.8"/>
    <path class="b" d="m696.4 768c0-6.5 19.7-11.8 44-11.8 24.2 0 43.9 5.3 43.9 11.8"/>
    <path class="b" d="m626.3 654.9c-0.9 0-1.8-0.4-2.4-1.2-1-1.3-0.7-3.2 0.6-4.2l97-71.5c0.6-0.4 1.2-0.6 1.8-0.6h145.6c1.7 0 3 1.4 3 3 0 1.7-1.3 3-3 3h-144.6l-96.2 70.9c-0.6 0.4-1.2 0.6-1.8 0.6z"/><circle class="b" cx="793.3" cy="674.7" r="4.7"/><text style="transform:matrix(2,0,0,2,233.981,904.229)" ><tspan x="-42.4" y="0" class="d">GẠO ST25
    </tspan></text><text style="transform:matrix(2,0,0,2,749.434,904.229)" ><tspan x="-78.8" y="0" class="d">THỨC ĂN GIA SÚC
    </tspan></text>
</svg>


